<?xml version="1.0" encoding="UTF-8" standalone="no"?>
<!-- Created with Inkscape (http://www.inkscape.org/) -->

<svg
   xmlns:dc="http://purl.org/dc/elements/1.1/"
   xmlns:cc="http://creativecommons.org/ns#"
   xmlns:rdf="http://www.w3.org/1999/02/22-rdf-syntax-ns#"
   xmlns:svg="http://www.w3.org/2000/svg"
   xmlns="http://www.w3.org/2000/svg"
   xmlns:sodipodi="http://sodipodi.sourceforge.net/DTD/sodipodi-0.dtd"
   xmlns:inkscape="http://www.inkscape.org/namespaces/inkscape"
   id="svg2"
   version="1.1"
   inkscape:version="0.91 r13725"
   xml:space="preserve"
   width="390"
   height="390.5"
   viewBox="0 0 390 390.5"
   sodipodi:docname="fhpc.svg"><metadata
     id="metadata8"><rdf:RDF><cc:Work
         rdf:about=""><dc:format>image/svg+xml</dc:format><dc:type
           rdf:resource="http://purl.org/dc/dcmitype/StillImage" /><dc:title></dc:title></cc:Work></rdf:RDF></metadata><defs
     id="defs6"><clipPath
       clipPathUnits="userSpaceOnUse"
       id="clipPath16"><path
         d="M 0,470 680,470 680,0 0,0 0,470 Z"
         id="path18"
         inkscape:connector-curvature="0" /></clipPath><clipPath
       clipPathUnits="userSpaceOnUse"
       id="clipPath32"><path
         d="m 341.567,384.512 c -0.128,-0.092 -0.256,-0.184 -0.383,-0.276 l 0,0 c -1.34,0.107 -2.681,0.194 -4.024,0.226 l 0,0 c -0.075,-0.055 -0.151,-0.11 -0.226,-0.164 l 0,0 c -1.164,0.009 -2.328,0.065 -3.49,0.069 l 0,0 c -0.058,-0.002 -0.116,-0.002 -0.172,-0.004 l 0,0 0.146,-0.196 -1.5,-0.028 c -0.034,0.034 -0.066,0.07 -0.102,0.103 l 0,0 c -0.619,-0.091 -1.246,-0.118 -1.872,-0.134 l 0,0 c -0.212,-0.038 -0.424,-0.073 -0.636,-0.122 l 0,0 c 0.065,0.065 0.14,0.121 0.205,0.185 l 0,0 -10e-4,0.002 c -0.038,-0.006 -0.077,-0.01 -0.114,-0.015 l 0,0 c -0.05,-0.036 -0.102,-0.073 -0.152,-0.11 l 0,0 c -0.138,0.02 -0.275,0.026 -0.412,0.035 l 0,0 c -1.695,-0.185 -3.414,-0.107 -5.078,-0.519 l 0,0 c 0.058,-0.079 0.117,-0.158 0.176,-0.236 l 0,0 c -1.549,-0.409 -3.091,-0.239 -4.646,-0.148 l 0,0 c 0.108,-0.143 0.216,-0.287 0.322,-0.431 l 0,0 c -2.346,-0.044 -4.715,-0.11 -6.811,-1.29 l 0,0 c -0.037,-0.022 -0.172,0.078 -0.373,0.262 l 0,0 c -1.71,-0.33 -3.477,-0.343 -5.117,-0.898 l 0,0 c 0.115,-0.152 0.228,-0.306 0.344,-0.459 l 0,0 c -1.788,-0.551 -3.626,-0.886 -5.482,-1.099 l 0,0 c -0.06,0.057 -0.115,0.119 -0.173,0.176 l 0,0 c -0.5,-0.179 -1.002,-0.353 -1.509,-0.51 l 0,0 c 0.003,-0.006 0.023,-0.029 0.021,-0.029 l 0,0 c -1.09,-0.619 -2.288,-0.877 -3.477,-1.23 l 0,0 c -0.133,0.127 -0.257,0.262 -0.386,0.391 l 0,0 c -1.135,-0.378 -2.241,-0.818 -3.263,-1.458 l 0,0 c -0.02,-0.012 -0.083,0.03 -0.164,0.094 l 0,0 c -1.027,-0.493 -2.128,-0.808 -3.148,-1.321 l 0,0 c -0.056,0.054 -0.108,0.112 -0.164,0.167 l 0,0 c -0.544,-0.299 -1.121,-0.484 -1.721,-0.586 l 0,0 c -2.07,-0.716 -3.985,-1.83 -6.062,-2.559 l 0,0 c -0.025,-0.009 -0.077,0.016 -0.131,0.047 l 0,0 c -2.311,-1.113 -4.734,-1.985 -7,-3.192 l 0,0 0.627,-34.504 c -33.75,-22.002 -55.883,-59.837 -55.158,-103.136 l 0,0 c 0.855,-47.1 29.144,-87.181 68.992,-106.289 l 0,0 -1.458,80.324 c -0.536,28.359 22.968,51.743 52.533,52.28 l 0,0 c 29.504,0.536 53.778,-21.981 54.362,-50.278 l 0,0 1.458,-80.316 c 39.144,20.421 65.923,61.557 65.136,108.716 l 0,0 c -0.785,43.239 -24.338,80.243 -58.925,101.004 l 0,0 -0.613,33.749 c -0.239,0.231 -0.467,0.472 -0.7,0.709 l 0,0 c -1.389,0.339 -2.578,1.221 -3.95,1.644 l 0,0 c -0.203,0.195 -0.393,0.401 -0.593,0.6 l 0,0 c -0.581,0.032 -1.163,0.05 -1.751,0.025 l 0,0 c -0.339,0.324 -0.659,0.663 -0.986,0.998 l 0,0 c -0.734,0.036 -1.469,0.07 -2.203,0.11 l 0,0 c -0.362,0.35 -0.708,0.713 -1.059,1.073 l 0,0 c -0.631,0.254 -1.29,0.431 -1.971,0.539 l 0,0 c -0.111,0.107 -0.217,0.219 -0.324,0.329 l 0,0 c -1.791,0.461 -3.593,0.892 -5.374,1.401 l 0,0 c -1.282,0.367 -2.555,0.801 -3.829,1.234 l 0,0 c -0.797,0.101 -1.593,0.197 -2.367,0.32 l 0,0 c -0.176,0.17 -0.342,0.35 -0.515,0.522 l 0,0 c -1.799,0.123 -3.584,0.283 -5.341,0.706 l 0,0 c -0.199,0.191 -0.388,0.389 -0.579,0.586 l 0,0 c -0.026,0.002 -0.052,10e-4 -0.079,0.003 l 0,0 0.32,-0.429 c -0.499,0.178 -0.997,0.331 -1.496,0.465 l 0,0 c -0.06,0 -0.118,0.007 -0.179,0.005 l 0,0 c -0.062,-0.002 -0.147,0.032 -0.249,0.09 l 0,0 c -0.642,0.155 -1.287,0.27 -1.94,0.354 l 0,0 0.356,-0.477 c -0.707,0.199 -1.421,0.403 -2.138,0.605 l 0,0 c -0.18,0.005 -0.359,0.015 -0.54,0.013 l 0,0 c -0.065,0.062 -0.128,0.129 -0.19,0.193 l 0,0 c -0.746,0.207 -1.496,0.406 -2.25,0.589 l 0,0 c -0.071,-0.05 -0.14,-0.101 -0.21,-0.151 l 0,0 c -1.018,0.027 -2.009,0.222 -3,0.428 l 0,0 c -0.148,-0.086 -0.257,-0.13 -0.313,-0.116 l 0,0 c -2.028,0.529 -4.038,0.717 -6.125,0.501 l 0,0 c 0.107,0.105 0.226,0.197 0.335,0.301 l 0,0 c -0.043,0 -0.085,10e-4 -0.127,10e-4 l 0,0 c -0.111,-0.08 -0.222,-0.16 -0.333,-0.24 l 0,0 c -0.285,0.101 -0.574,0.177 -0.865,0.246 l 0,0 c -0.152,0 -0.305,0.004 -0.457,0.002 l 0,0 c -0.072,-10e-4 -0.188,0.061 -0.315,0.143 l 0,0 c -0.666,0.102 -1.342,0.141 -2.022,0.157 l 0,0 c -0.052,-0.037 -0.103,-0.074 -0.154,-0.111 l 0,0 c -2.378,0.018 -4.749,0.213 -7.124,0 l 0,0 c 0.119,0.121 0.255,0.225 0.379,0.343 l 0,0 c -0.041,-0.002 -0.08,-0.003 -0.121,-0.004"
         id="path34"
         inkscape:connector-curvature="0" /></clipPath><linearGradient
       x1="0"
       y1="0"
       x2="1"
       y2="0"
       gradientUnits="userSpaceOnUse"
       gradientTransform="matrix(241.05713,0,0,-241.05713,220.44385,254.9209)"
       spreadMethod="pad"
       id="linearGradient40"><stop
         style="stop-opacity:1;stop-color:#e0a92c"
         offset="0"
         id="stop42" /><stop
         style="stop-opacity:1;stop-color:#ebb635"
         offset="0.150538"
         id="stop44" /><stop
         style="stop-opacity:1;stop-color:#f1d041"
         offset="0.290323"
         id="stop46" /><stop
         style="stop-opacity:1;stop-color:#eff25d"
         offset="0.44086"
         id="stop48" /><stop
         style="stop-opacity:1;stop-color:#e3ad30"
         offset="0.596774"
         id="stop50" /><stop
         style="stop-opacity:1;stop-color:#e9b736"
         offset="0.747312"
         id="stop52" /><stop
         style="stop-opacity:1;stop-color:#f3ca3d"
         offset="0.865591"
         id="stop54" /><stop
         style="stop-opacity:1;stop-color:#eff260"
         offset="0.994624"
         id="stop56" /><stop
         style="stop-opacity:1;stop-color:#eff260"
         offset="1"
         id="stop58" /></linearGradient><clipPath
       clipPathUnits="userSpaceOnUse"
       id="clipPath66"><path
         d="M 0,470 680,470 680,0 0,0 0,470 Z"
         id="path68"
         inkscape:connector-curvature="0" /></clipPath><clipPath
       clipPathUnits="userSpaceOnUse"
       id="clipPath114"><path
         d="M 0,470 680,470 680,0 0,0 0,470 Z"
         id="path116"
         inkscape:connector-curvature="0" /></clipPath></defs><sodipodi:namedview
     pagecolor="#ffffff"
     bordercolor="#666666"
     borderopacity="1"
     objecttolerance="10"
     gridtolerance="10"
     guidetolerance="10"
     inkscape:pageopacity="0"
     inkscape:pageshadow="2"
     inkscape:window-width="1366"
     inkscape:window-height="712"
     id="namedview4"
     showgrid="false"
     inkscape:zoom="0.35764706"
     inkscape:cx="-58.717105"
     inkscape:cy="293.75"
     inkscape:window-x="0"
     inkscape:window-y="0"
     inkscape:window-maximized="1"
     inkscape:current-layer="g10" /><g
     id="g10"
     inkscape:groupmode="layer"
     inkscape:label="newlogo"
     transform="matrix(1.25,0,0,-1.25,0,390.5)"><g
       id="g12"
       transform="translate(-183.42105,-80.526316)"><g
         id="g14"
         clip-path="url(#clipPath16)"><g
           id="g20"
           transform="translate(341.752,93.8066)"><path
             d="M 0,0 C -78.034,-0.719 -141.877,61.926 -142.596,139.922 -143.312,217.918 -80.635,281.73 -2.602,282.45 75.434,283.169 139.276,220.525 139.995,142.528 140.713,64.531 78.035,0.721 0,0 Z"
             style="fill:none;stroke:#00adef;stroke-width:3;stroke-linecap:butt;stroke-linejoin:miter;stroke-miterlimit:4;stroke-dasharray:none;stroke-opacity:1"
             id="path22"
             inkscape:connector-curvature="0" /></g><g
           id="g24"
           transform="translate(343.1855,114.0313)"><path
             d="m 0,0 c -65.853,-1.196 -120.205,51.217 -121.401,117.068 -1.197,65.853 51.218,120.204 117.07,121.401 C 61.52,239.665 115.874,187.251 117.069,121.4 118.266,55.548 65.851,1.196 0,0"
             style="fill:#00adef;fill-opacity:1;fill-rule:nonzero;stroke:none"
             id="path26"
             inkscape:connector-curvature="0" /></g></g></g><g
       id="g28"
       transform="translate(-183.42105,-80.526316)"><g
         id="g30"
         clip-path="url(#clipPath32)"><g
           id="g36"><g
             id="g38"><path
               d="m 341.567,384.512 c -0.128,-0.092 -0.256,-0.184 -0.383,-0.276 l 0,0 c -1.34,0.107 -2.681,0.194 -4.024,0.226 l 0,0 c -0.075,-0.055 -0.151,-0.11 -0.226,-0.164 l 0,0 c -1.164,0.009 -2.328,0.065 -3.49,0.069 l 0,0 c -0.058,-0.002 -0.116,-0.002 -0.172,-0.004 l 0,0 0.146,-0.196 -1.5,-0.028 c -0.034,0.034 -0.066,0.07 -0.102,0.103 l 0,0 c -0.619,-0.091 -1.246,-0.118 -1.872,-0.134 l 0,0 c -0.212,-0.038 -0.424,-0.073 -0.636,-0.122 l 0,0 c 0.065,0.065 0.14,0.121 0.205,0.185 l 0,0 -10e-4,0.002 c -0.038,-0.006 -0.077,-0.01 -0.114,-0.015 l 0,0 c -0.05,-0.036 -0.102,-0.073 -0.152,-0.11 l 0,0 c -0.138,0.02 -0.275,0.026 -0.412,0.035 l 0,0 c -1.695,-0.185 -3.414,-0.107 -5.078,-0.519 l 0,0 c 0.058,-0.079 0.117,-0.158 0.176,-0.236 l 0,0 c -1.549,-0.409 -3.091,-0.239 -4.646,-0.148 l 0,0 c 0.108,-0.143 0.216,-0.287 0.322,-0.431 l 0,0 c -2.346,-0.044 -4.715,-0.11 -6.811,-1.29 l 0,0 c -0.037,-0.022 -0.172,0.078 -0.373,0.262 l 0,0 c -1.71,-0.33 -3.477,-0.343 -5.117,-0.898 l 0,0 c 0.115,-0.152 0.228,-0.306 0.344,-0.459 l 0,0 c -1.788,-0.551 -3.626,-0.886 -5.482,-1.099 l 0,0 c -0.06,0.057 -0.115,0.119 -0.173,0.176 l 0,0 c -0.5,-0.179 -1.002,-0.353 -1.509,-0.51 l 0,0 c 0.003,-0.006 0.023,-0.029 0.021,-0.029 l 0,0 c -1.09,-0.619 -2.288,-0.877 -3.477,-1.23 l 0,0 c -0.133,0.127 -0.257,0.262 -0.386,0.391 l 0,0 c -1.135,-0.378 -2.241,-0.818 -3.263,-1.458 l 0,0 c -0.02,-0.012 -0.083,0.03 -0.164,0.094 l 0,0 c -1.027,-0.493 -2.128,-0.808 -3.148,-1.321 l 0,0 c -0.056,0.054 -0.108,0.112 -0.164,0.167 l 0,0 c -0.544,-0.299 -1.121,-0.484 -1.721,-0.586 l 0,0 c -2.07,-0.716 -3.985,-1.83 -6.062,-2.559 l 0,0 c -0.025,-0.009 -0.077,0.016 -0.131,0.047 l 0,0 c -2.311,-1.113 -4.734,-1.985 -7,-3.192 l 0,0 0.627,-34.504 c -33.75,-22.002 -55.883,-59.837 -55.158,-103.136 l 0,0 c 0.855,-47.1 29.144,-87.181 68.992,-106.289 l 0,0 -1.458,80.324 c -0.536,28.359 22.968,51.743 52.533,52.28 l 0,0 c 29.504,0.536 53.778,-21.981 54.362,-50.278 l 0,0 1.458,-80.316 c 39.144,20.421 65.923,61.557 65.136,108.716 l 0,0 c -0.785,43.239 -24.338,80.243 -58.925,101.004 l 0,0 -0.613,33.749 c -0.239,0.231 -0.467,0.472 -0.7,0.709 l 0,0 c -1.389,0.339 -2.578,1.221 -3.95,1.644 l 0,0 c -0.203,0.195 -0.393,0.401 -0.593,0.6 l 0,0 c -0.581,0.032 -1.163,0.05 -1.751,0.025 l 0,0 c -0.339,0.324 -0.659,0.663 -0.986,0.998 l 0,0 c -0.734,0.036 -1.469,0.07 -2.203,0.11 l 0,0 c -0.362,0.35 -0.708,0.713 -1.059,1.073 l 0,0 c -0.631,0.254 -1.29,0.431 -1.971,0.539 l 0,0 c -0.111,0.107 -0.217,0.219 -0.324,0.329 l 0,0 c -1.791,0.461 -3.593,0.892 -5.374,1.401 l 0,0 c -1.282,0.367 -2.555,0.801 -3.829,1.234 l 0,0 c -0.797,0.101 -1.593,0.197 -2.367,0.32 l 0,0 c -0.176,0.17 -0.342,0.35 -0.515,0.522 l 0,0 c -1.799,0.123 -3.584,0.283 -5.341,0.706 l 0,0 c -0.199,0.191 -0.388,0.389 -0.579,0.586 l 0,0 c -0.026,0.002 -0.052,10e-4 -0.079,0.003 l 0,0 0.32,-0.429 c -0.499,0.178 -0.997,0.331 -1.496,0.465 l 0,0 c -0.06,0 -0.118,0.007 -0.179,0.005 l 0,0 c -0.062,-0.002 -0.147,0.032 -0.249,0.09 l 0,0 c -0.642,0.155 -1.287,0.27 -1.94,0.354 l 0,0 0.356,-0.477 c -0.707,0.199 -1.421,0.403 -2.138,0.605 l 0,0 c -0.18,0.005 -0.359,0.015 -0.54,0.013 l 0,0 c -0.065,0.062 -0.128,0.129 -0.19,0.193 l 0,0 c -0.746,0.207 -1.496,0.406 -2.25,0.589 l 0,0 c -0.071,-0.05 -0.14,-0.101 -0.21,-0.151 l 0,0 c -1.018,0.027 -2.009,0.222 -3,0.428 l 0,0 c -0.148,-0.086 -0.257,-0.13 -0.313,-0.116 l 0,0 c -2.028,0.529 -4.038,0.717 -6.125,0.501 l 0,0 c 0.107,0.105 0.226,0.197 0.335,0.301 l 0,0 c -0.043,0 -0.085,10e-4 -0.127,10e-4 l 0,0 c -0.111,-0.08 -0.222,-0.16 -0.333,-0.24 l 0,0 c -0.285,0.101 -0.574,0.177 -0.865,0.246 l 0,0 c -0.152,0 -0.305,0.004 -0.457,0.002 l 0,0 c -0.072,-10e-4 -0.188,0.061 -0.315,0.143 l 0,0 c -0.666,0.102 -1.342,0.141 -2.022,0.157 l 0,0 c -0.052,-0.037 -0.103,-0.074 -0.154,-0.111 l 0,0 c -2.378,0.018 -4.749,0.213 -7.124,0 l 0,0 c 0.119,0.121 0.255,0.225 0.379,0.343 l 0,0 c -0.041,-0.002 -0.08,-0.003 -0.121,-0.004"
               style="fill:url(#linearGradient40);stroke:none"
               id="path60"
               inkscape:connector-curvature="0" /></g></g></g></g><g
       id="g62"
       transform="translate(-183.42105,-80.526316)"><g
         id="g64"
         clip-path="url(#clipPath66)"><g
           id="g70"
           transform="translate(364.1035,169.7461)"><path
             d="m 0,0 c -8.18,0.988 -14,8.424 -13.012,16.596 0.991,8.168 8.418,14 16.596,13.009 C 6.596,29.24 9.287,28 11.436,26.172 l 5.849,4.496 c -0.683,0.666 -1.408,1.291 -2.176,1.873 l 2.922,3.881 c -1.869,1.418 -3.927,2.586 -6.15,3.48 l -1.817,-4.519 c -1.757,0.705 -3.636,1.195 -5.609,1.433 l 0.586,4.83 c -2.404,0.292 -4.775,0.258 -7.059,-0.062 l 0.69,-4.818 c -1.943,-0.282 -3.818,-0.809 -5.58,-1.561 l -1.91,4.467 c -2.184,-0.926 -4.221,-2.133 -6.075,-3.592 l 3.002,-3.826 c -1.513,-1.195 -2.879,-2.58 -4.048,-4.137 l -3.897,2.922 c -1.401,-1.861 -2.576,-3.932 -3.464,-6.143 l 4.518,-1.816 c -0.711,-1.762 -1.202,-3.637 -1.442,-5.611 l -4.829,0.584 c -0.291,-2.408 -0.256,-4.77 0.071,-7.069 l 4.818,0.692 c 0.275,-1.947 0.801,-3.817 1.56,-5.574 l -4.482,-1.909 c 0.934,-2.181 2.147,-4.23 3.6,-6.074 l 3.826,3 c 1.193,-1.521 2.58,-2.879 4.135,-4.055 l -2.92,-3.882 c 1.867,-1.418 3.925,-2.584 6.146,-3.479 l 1.82,4.514 c 1.756,-0.701 3.637,-1.192 5.606,-1.428 l -0.584,-4.832 c 2.404,-0.291 4.773,-0.256 7.061,0.063 l -0.69,4.82 c 1.943,0.279 3.815,0.806 5.578,1.556 l 1.91,-4.464 c 2.18,0.923 4.221,2.132 6.075,3.591 l -3.002,3.827 c 0.818,0.646 1.587,1.349 2.312,2.105 L 12.645,4.576 C 9.506,1.252 4.887,-0.594 0,0"
             style="fill:#ffffff;fill-opacity:1;fill-rule:nonzero;stroke:none"
             id="path72"
             inkscape:connector-curvature="0" /></g></g></g><text
       transform="matrix(0.99999769,0.00215064,0.00215064,-0.99999769,0,0)"
       style="font-variant:normal;font-weight:normal;font-stretch:normal;font-size:65.56175232px;font-family:'Alpaca Scarlett Demo';-inkscape-font-specification:AlpacaScarlettDemo;writing-mode:lr-tb;fill:#ffffff;fill-opacity:1;fill-rule:nonzero;stroke:none"
       id="text74"
       x="117.10071"
       y="-77.043221"><tspan
         x="117.10071"
         y="-77.043221"
         id="tspan76">P</tspan></text>
<text
       transform="matrix(0.66716681,0.74490834,0.74490834,-0.66716681,0,0)"
       style="font-variant:normal;font-weight:normal;font-stretch:normal;font-size:28.99994278px;font-family:Bebas;-inkscape-font-specification:Bebas;writing-mode:lr-tb;fill:#50ade5;fill-opacity:1;fill-rule:nonzero;stroke:none"
       id="text78"
       x="190.01199"
       y="-55.420574"><tspan
         x="190.01199"
         y="-55.420574"
         id="tspan80">F</tspan></text>
<text
       transform="matrix(0.8135503,0.58149455,0.58149455,-0.8135503,0,0)"
       style="font-variant:normal;font-weight:normal;font-stretch:normal;font-size:28.99992752px;font-family:Bebas;-inkscape-font-specification:Bebas;writing-mode:lr-tb;fill:#50ade5;fill-opacity:1;fill-rule:nonzero;stroke:none"
       id="text82"
       x="191.41441"
       y="-99.198349"><tspan
         x="191.41441"
         y="-99.198349"
         id="tspan84">A</tspan></text>
<text
       transform="matrix(0.92111515,0.38929023,0.38929023,-0.92111515,0,0)"
       style="font-variant:normal;font-weight:normal;font-stretch:normal;font-size:28.99995804px;font-family:Bebas;-inkscape-font-specification:Bebas;writing-mode:lr-tb;fill:#50ade5;fill-opacity:1;fill-rule:nonzero;stroke:none"
       id="text86"
       x="189.87306"
       y="-142.7339"><tspan
         x="189.87306"
         y="-142.7339"
         id="tspan88">I</tspan></text>
<text
       transform="matrix(0.98326657,0.18217261,0.18217261,-0.98326657,0,0)"
       style="font-variant:normal;font-weight:normal;font-stretch:normal;font-size:28.99996948px;font-family:Bebas;-inkscape-font-specification:Bebas;writing-mode:lr-tb;fill:#50ade5;fill-opacity:1;fill-rule:nonzero;stroke:none"
       id="text90"
       x="169.78146"
       y="-183.06201"><tspan
         x="169.78146"
         y="-183.06201"
         id="tspan92">R</tspan></text>
<text
       transform="matrix(0.99701188,-0.07724839,-0.07724839,-0.99701188,0,0)"
       style="font-variant:normal;font-weight:normal;font-stretch:normal;font-size:28.99995613px;font-family:Bebas;-inkscape-font-specification:Bebas;writing-mode:lr-tb;fill:#50ade5;fill-opacity:1;fill-rule:nonzero;stroke:none"
       id="text94"
       x="140.40025"
       y="-225.72548"><tspan
         x="140.40025"
         y="-225.72548"
         id="tspan96">H</tspan></text>
<text
       transform="matrix(0.94377796,-0.33058004,-0.33058004,-0.94377796,0,0)"
       style="font-variant:normal;font-weight:normal;font-stretch:normal;font-size:28.99993515px;font-family:Bebas;-inkscape-font-specification:Bebas;writing-mode:lr-tb;fill:#50ade5;fill-opacity:1;fill-rule:nonzero;stroke:none"
       id="text98"
       x="100.79418"
       y="-259.17783"><tspan
         x="100.79418"
         y="-259.17783"
         id="tspan100">O</tspan></text>
<text
       transform="matrix(0.83003421,-0.55771248,-0.55771248,-0.83003421,0,0)"
       style="font-variant:normal;font-weight:normal;font-stretch:normal;font-size:28.99988937px;font-family:Bebas;-inkscape-font-specification:Bebas;writing-mode:lr-tb;fill:#50ade5;fill-opacity:1;fill-rule:nonzero;stroke:none"
       id="text102"
       x="55.19379"
       y="-281.0574"><tspan
         x="55.19379"
         y="-281.0574"
         id="tspan104">P</tspan></text>
<text
       transform="matrix(0.66798491,-0.74417481,-0.74417481,-0.66798491,0,0)"
       style="font-variant:normal;font-weight:normal;font-stretch:normal;font-size:28.99990654px;font-family:Bebas;-inkscape-font-specification:Bebas;writing-mode:lr-tb;fill:#50ade5;fill-opacity:1;fill-rule:nonzero;stroke:none"
       id="text106"
       x="7.206388"
       y="-290.61584"><tspan
         x="7.206388"
         y="-290.61584"
         id="tspan108">E</tspan></text>
<g
       id="g110"
       transform="translate(-183.42105,-80.526316)"><g
         id="g112"
         clip-path="url(#clipPath114)"><g
           id="g118"
           transform="translate(343.1602,85.9023)"><path
             d="m 0,0 c -82.361,-1.496 -150.342,64.059 -151.838,146.422 -1.496,82.361 64.06,150.341 146.421,151.837 C 76.944,299.755 144.926,234.2 146.421,151.838 147.917,69.475 82.36,1.496 0,0 Z"
             style="fill:none;stroke:#00adef;stroke-width:1;stroke-linecap:butt;stroke-linejoin:miter;stroke-miterlimit:4;stroke-dasharray:none;stroke-opacity:1"
             id="path120"
             inkscape:connector-curvature="0" /></g></g></g></g></svg>