<?xml version="1.0" encoding="UTF-8" standalone="no"?>
<!-- Created with Inkscape (http://www.inkscape.org/) -->

<svg
   xmlns:dc="http://purl.org/dc/elements/1.1/"
   xmlns:cc="http://creativecommons.org/ns#"
   xmlns:rdf="http://www.w3.org/1999/02/22-rdf-syntax-ns#"
   xmlns:svg="http://www.w3.org/2000/svg"
   xmlns="http://www.w3.org/2000/svg"
   xmlns:sodipodi="http://sodipodi.sourceforge.net/DTD/sodipodi-0.dtd"
   xmlns:inkscape="http://www.inkscape.org/namespaces/inkscape"
   width="150mm"
   height="150mm"
   viewBox="0 0 531.49607 531.49606"
   id="svg2"
   version="1.1"
   inkscape:version="0.91 r13725"
   inkscape:export-filename="/home/ryan/path4142.png"
   inkscape:export-xdpi="124.56"
   inkscape:export-ydpi="124.56"
   sodipodi:docname="fhpc-white.svg">
  <defs
     id="defs4" />
  <sodipodi:namedview
     id="base"
     pagecolor="#ffffff"
     bordercolor="#666666"
     borderopacity="1.0"
     inkscape:pageopacity="0.0"
     inkscape:pageshadow="2"
     inkscape:zoom="0.7"
     inkscape:cx="372.04724"
     inkscape:cy="355.28926"
     inkscape:document-units="px"
     inkscape:current-layer="layer1"
     showgrid="false"
     inkscape:window-width="1366"
     inkscape:window-height="712"
     inkscape:window-x="0"
     inkscape:window-y="0"
     inkscape:window-maximized="1" />
  <metadata
     id="metadata7">
    <rdf:RDF>
      <cc:Work
         rdf:about="">
        <dc:format>image/svg+xml</dc:format>
        <dc:type
           rdf:resource="http://purl.org/dc/dcmitype/StillImage" />
        <dc:title></dc:title>
      </cc:Work>
    </rdf:RDF>
  </metadata>
  <g
     inkscape:label="Layer 1"
     inkscape:groupmode="layer"
     id="layer1"
     transform="translate(0,-520.86615)">
    <path
       style="color:#000000;clip-rule:nonzero;display:inline;overflow:visible;visibility:visible;opacity:1;isolation:auto;mix-blend-mode:normal;color-interpolation:sRGB;color-interpolation-filters:linearRGB;solid-color:#000000;solid-opacity:1;fill:#ffffff;fill-opacity:1;fill-rule:nonzero;stroke:none;stroke-width:1.00000012px;stroke-linecap:butt;stroke-linejoin:miter;stroke-miterlimit:4;stroke-dasharray:none;stroke-dashoffset:0;stroke-opacity:1;color-rendering:auto;image-rendering:auto;shape-rendering:auto;text-rendering:auto;enable-background:accumulate"
       d="M 267.85797,630.93416 A 197.85715,202.14285 0 0 0 70.00054,833.07674 197.85715,202.14285 0 0 0 180.0025,1014.0924 l 0,-123.15629 0.082,0 a 88.571426,80.714287 0 0 1 -0.084,-2.14453 88.571426,80.714287 0 0 1 88.57032,-80.71484 88.571426,80.714287 0 0 1 88.57226,80.71484 88.571426,80.714287 0 0 1 -0.11719,2.14453 l 0.11524,0 0,122.28909 A 197.85715,202.14285 0 0 0 465.71343,833.07674 197.85715,202.14285 0 0 0 267.85797,630.93416 Z m -2.46485,60.36523 18.4336,1.88867 -0.78711,8.32813 -2.3418,-0.24024 -0.72852,7.7168 6.82618,0.70117 0.73046,-7.71875 -2.34179,-0.23828 0.78906,-8.32812 18.43164,1.89062 -0.78711,8.32813 -2.4375,-0.25196 -2.16211,22.84961 2.4375,0.25 -0.78711,8.32617 -18.43359,-1.89062 0.78906,-8.32617 2.33984,0.24023 0.79297,-8.3789 -6.82812,-0.69922 -0.79102,8.37695 2.33985,0.24023 -0.78711,8.32813 -18.4336,-1.89063 0.78711,-8.32812 2.43946,0.25 2.16015,-22.84766 -2.4375,-0.25 0.78711,-8.32617 z m -23.16406,2.39453 c 2.8043,-0.0936 5.12558,0.399 6.96484,1.48047 2.45236,1.44197 3.96587,4.16462 4.53907,8.16797 0.32272,2.25399 0.16564,4.27279 -0.47071,6.05664 -0.63634,1.78385 -1.71626,3.12176 -3.24023,4.01172 l 0.12109,0.49609 c 3.17399,0.0232 5.00973,1.76734 5.50586,5.23243 l 0.55469,3.88671 2.2793,-0.35351 1.18359,8.27539 -15.36328,2.38477 -1.69727,-11.85938 c -0.18785,-1.31202 -0.52376,-2.27407 -1.00781,-2.88672 -0.45174,-0.61766 -1.09799,-0.98169 -1.93945,-1.0918 -0.80916,-0.11512 -1.94059,-0.0597 -3.39453,0.16602 l 1.18359,8.27539 3.19922,-0.49609 1.18555,8.27734 -19.19336,2.97852 -1.1836,-8.27539 2.42188,-0.37696 -3.25,-22.70898 -2.42383,0.37695 -1.18555,-8.27539 22.2461,-3.45312 c 1.04199,-0.16175 2.03007,-0.25788 2.96484,-0.28907 z m -33.83789,6.86719 2.63086,7.90625 -2.31445,0.83398 7.21679,21.69532 2.31445,-0.83594 2.63086,7.90625 -17.59375,6.3457 -2.63085,-7.90625 2.31445,-0.83398 -7.2168,-21.69531 -2.31445,0.83593 -2.63086,-7.90625 17.59375,-6.3457 z m 116.94922,1.69531 c 2.4401,0.0478 5.06493,0.59925 7.87695,1.6543 5.62405,2.11011 9.42685,5.27091 11.40625,9.48438 2.01013,4.22499 1.84642,9.71494 -0.49023,16.46679 -2.33665,6.75185 -5.57262,11.08699 -9.70899,13.00586 -4.10564,1.9304 -8.97165,1.84058 -14.5957,-0.26953 -5.62405,-2.11011 -9.44104,-5.27891 -11.45117,-9.50391 -1.9794,-4.21346 -1.79954,-9.69541 0.53711,-16.44726 2.33665,-6.75185 5.55647,-11.09304 9.66211,-13.02344 2.06818,-0.95943 4.32356,-1.415 6.76367,-1.36719 z m -87.86133,0.51563 c -0.20877,-0.002 -0.42982,0.0144 -0.66406,0.0508 l -2.61719,0.40625 1.18359,8.27539 2.61719,-0.40625 c 0.93698,-0.14544 1.59648,-0.50524 1.97656,-1.08008 0.40758,-0.61349 0.532,-1.47576 0.37305,-2.58594 l -0.25977,-1.8164 c -0.15895,-1.11017 -0.51732,-1.8792 -1.07421,-2.3086 -0.39706,-0.35103 -0.90884,-0.5292 -1.53516,-0.53515 z m 91.33594,9.38281 c -0.44168,-0.003 -0.84223,0.0913 -1.20313,0.28125 -0.72179,0.37997 -1.29402,1.17856 -1.71484,2.39453 l -5.01563,14.49414 c -0.43189,1.24798 -0.48718,2.25924 -0.16406,3.03125 0.33419,0.74001 1.02345,1.30523 2.06836,1.69727 1.04491,0.39204 1.9286,0.3995 2.65039,0.0195 0.72179,-0.37997 1.29403,-1.17856 1.71484,-2.39453 l 5.01563,-14.4961 c 0.42082,-1.21597 0.4696,-2.21041 0.14648,-2.98242 -0.32311,-0.77201 -1.00587,-1.35405 -2.05078,-1.74609 -0.52245,-0.19602 -1.00559,-0.29581 -1.44726,-0.29883 z m -155.26758,2.96289 22.13086,22.9082 1.70117,-1.01367 3.99023,7.26172 -16.67187,9.9336 -3.99023,-7.26172 2.55273,-1.52149 -2.62891,-3.13672 -5.7832,3.44532 1.26562,3.94921 2.55274,-1.52148 3.99023,7.26367 -14.54492,8.66602 -3.99023,-7.26367 1.70117,-1.01172 -7.75586,-31.47266 15.48047,-9.22461 z m 186.54492,1.2207 18.01563,12.24024 c 3.52913,2.39779 5.72335,5.02563 6.58398,7.88476 0.87848,2.83065 0.21166,6.01274 -2.00195,9.54493 -2.21361,3.53218 -4.75132,5.46369 -7.61133,5.79492 -2.84216,0.30274 -6.0275,-0.74479 -9.55664,-3.14258 l -4.47266,-3.03906 -3.85547,6.15234 3.93946,2.67578 -4.39258,7.00782 -17.48047,-11.87696 4.39062,-7.00781 2.05274,1.39453 12.04883,-19.22852 -2.05078,-1.39257 4.39062,-7.00782 z m -189.5625,14.03907 -0.42578,0.2539 3.09961,9.85157 3.91211,-2.33204 -6.58594,-7.77343 z m -24.69336,2.00976 8.38477,9.91797 -6.50977,5.9668 -3.07422,-3.63672 -3.34765,3.06641 5.375,6.35742 5.55273,-5.08985 3.69141,4.36524 -5.55274,5.08984 5.50391,6.51172 4.81836,-4.41797 5.30859,6.28125 -16.95508,15.54102 -5.30859,-6.2793 1.83789,-1.68555 -14.57031,-17.23437 -1.83789,1.68555 -5.31055,-6.2793 21.99414,-20.16016 z m 223.40625,0.15821 -4.39062,7.00781 1.39453,0.94922 c 1.58674,1.07807 2.95124,0.70392 4.09375,-1.11914 l 0.96484,-1.53711 c 0.58911,-0.94002 0.81251,-1.76266 0.66992,-2.46875 -0.0974,-0.71599 -0.54256,-1.34378 -1.33593,-1.88282 l -1.39649,-0.94921 z m 27.5,10.1914 23.12305,24.625 -10.58203,10.77149 -7.67188,-8.17188 4.83399,-4.92187 -4.14454,-4.41407 -5.5371,5.63672 3.01562,3.20899 -3.99414,4.0664 -3.01367,-3.20898 -6.23633,6.34765 4.14453,4.41407 5.53516,-5.63477 7.67383,8.17188 -11.28125,11.48437 -23.12305,-24.62305 5.74414,-5.8496 1.71289,1.82421 15.76758,-16.05273 -1.71289,-1.82227 5.74609,-5.85156 z"
       id="path4140"
       inkscape:export-filename="/home/ryan/path4140.png"
       inkscape:export-xdpi="124.56"
       inkscape:export-ydpi="124.56"
       inkscape:connector-curvature="0" />
    <path
       style="fill:#ffffff;fill-rule:evenodd;stroke:#ffffff;stroke-width:1px;stroke-linecap:butt;stroke-linejoin:miter;stroke-opacity:1"
       d="m 182.85713,650.93364 0,-87.14285 c 52.60565,-18.00457 106.45269,-22.35383 162.85715,1.42857 l 0,91.42857 z"
       id="path4146"
       inkscape:connector-curvature="0"
       sodipodi:nodetypes="ccccc" />
    <circle
       style="color:#000000;clip-rule:nonzero;display:inline;overflow:visible;visibility:visible;opacity:1;isolation:auto;mix-blend-mode:normal;color-interpolation:sRGB;color-interpolation-filters:linearRGB;solid-color:#000000;solid-opacity:1;fill:none;fill-opacity:1;fill-rule:nonzero;stroke:none;stroke-width:1.00000012px;stroke-linecap:butt;stroke-linejoin:miter;stroke-miterlimit:4;stroke-dasharray:none;stroke-dashoffset:0;stroke-opacity:1;color-rendering:auto;image-rendering:auto;shape-rendering:auto;text-rendering:auto;enable-background:accumulate"
       id="path4148"
       cx="372.14288"
       cy="568.79077"
       r="146.42857" />
    <path
       style="fill:#ffffff;stroke:#ffffff;stroke-width:1.0381006;stroke-opacity:1"
       d="m 287.23408,844.56698 -86.41797,27.26953 -19.37695,87.79297 67.04102,60.52732 86.41797,-27.26755 19.37695,-87.79493 -67.04102,-60.52734 z m -2.88476,67.58008 c 2.85,0 5.48992,0.34515 7.91992,1.03515 2.46,0.69 4.29023,1.45493 5.49023,2.29493 l 0,11.25 -10.80078,0 0,-3.24024 c 0,-1.14 -0.25367,-1.97953 -0.76367,-2.51953 -0.51,-0.54 -1.27492,-0.81055 -2.29492,-0.81055 -1.02,0 -1.78492,0.27055 -2.29492,0.81055 -0.51,0.54 -0.76563,1.37953 -0.76563,2.51953 l 0,13.58985 c 0,1.14 0.25563,1.98148 0.76563,2.52148 0.51,0.54 1.27492,0.80859 2.29492,0.80859 1.02,0 1.78492,-0.26859 2.29492,-0.80859 0.51,-0.54 0.76367,-1.38148 0.76367,-2.52148 l 0,-3.64454 10.80078,0 0,11.6543 c -1.23,0.84 -3.06023,1.60688 -5.49023,2.29688 -2.4,0.69 -5.01008,1.0332 -7.83008,1.0332 -5.67,0 -10.05062,-1.43836 -13.14062,-4.31836 -3.06,-2.88 -4.58985,-7.48641 -4.58985,-13.81641 0,-12.09 5.88063,-18.13476 17.64063,-18.13476 z m -50.5918,0.63086 19.75391,0 c 3.87,0 6.82523,0.83953 8.86523,2.51953 2.04,1.65 3.06055,4.33469 3.06055,8.05469 0,3.72 -1.02055,6.41961 -3.06055,8.09961 -2.04,1.65 -4.99523,2.47656 -8.86523,2.47656 l -4.9043,0 0,6.47851 4.32031,0 0,7.38086 -19.16992,0 0,-7.38086 2.25,0 0,-20.25 -2.25,0 0,-7.3789 z m 14.84961,7.3789 0,7.38086 1.5293,0 c 1.74,0 2.60937,-0.96086 2.60937,-2.88086 l 0,-1.61914 c 0,-0.99 -0.22383,-1.71015 -0.67383,-2.16015 -0.42,-0.48 -1.06554,-0.72071 -1.93554,-0.72071 l -1.5293,0 z"
       id="path4175"
       inkscape:connector-curvature="0" />
  </g>
</svg>
