<?xml version="1.0" encoding="UTF-8" standalone="no"?>
<!-- Created with Inkscape (http://www.inkscape.org/) -->

<svg
   xmlns:dc="http://purl.org/dc/elements/1.1/"
   xmlns:cc="http://creativecommons.org/ns#"
   xmlns:rdf="http://www.w3.org/1999/02/22-rdf-syntax-ns#"
   xmlns:svg="http://www.w3.org/2000/svg"
   xmlns="http://www.w3.org/2000/svg"
   xmlns:sodipodi="http://sodipodi.sourceforge.net/DTD/sodipodi-0.dtd"
   xmlns:inkscape="http://www.inkscape.org/namespaces/inkscape"
   width="150mm"
   height="105mm"
   viewBox="0 0 531.49606 372.04724"
   id="svg2"
   version="1.1"
   inkscape:version="0.91 r13725"
   sodipodi:docname="map.svg">
  <defs
     id="defs4" />
  <sodipodi:namedview
     id="base"
     pagecolor="#ffffff"
     bordercolor="#666666"
     borderopacity="1.0"
     inkscape:pageopacity="0.0"
     inkscape:pageshadow="2"
     inkscape:zoom="0.98994949"
     inkscape:cx="349.47373"
     inkscape:cy="231.443"
     inkscape:document-units="px"
     inkscape:current-layer="layer1"
     showgrid="false"
     inkscape:window-width="1366"
     inkscape:window-height="712"
     inkscape:window-x="0"
     inkscape:window-y="0"
     inkscape:window-maximized="1" />
  <metadata
     id="metadata7">
    <rdf:RDF>
      <cc:Work
         rdf:about="">
        <dc:format>image/svg+xml</dc:format>
        <dc:type
           rdf:resource="http://purl.org/dc/dcmitype/StillImage" />
        <dc:title></dc:title>
      </cc:Work>
    </rdf:RDF>
  </metadata>
  <g
     inkscape:label="Layer 1"
     inkscape:groupmode="layer"
     id="layer1"
     transform="translate(0,-680.31498)">
    <path
       style="fill:#ffffff;stroke:#ffffff;stroke-opacity:1"
       d="m 18.18286,694.7678 0,345.4727 503.05664,0 0,-345.4727 -503.05664,0 z m 12.1582,12.16015 359.57813,0 0,36.32813 -359.57813,0 0,-36.32813 z m 389.88282,0 86.83593,0 0,36.32813 -86.83593,0 0,-36.32813 z m -305.95118,43.80078 1.6836,0 0,2.13282 -1.6836,0 0,-2.13282 z m 12.53321,0 1.69336,0 0,5.58594 c 0.40283,-0.61645 0.8767,-1.07764 1.41992,-1.38281 0.54931,-0.30518 1.18042,-0.45899 1.89453,-0.45899 1.17798,0 2.06958,0.36719 2.67383,1.09961 0.60424,0.72632 0.90625,1.79688 0.90625,3.21289 l 0,6.18946 -1.68555,0 0,-6.13477 c 0,-0.97046 -0.18799,-1.69556 -0.56641,-2.17773 -0.37841,-0.48218 -0.94629,-0.72461 -1.70312,-0.72461 -0.90943,0 -1.62744,0.29126 -2.15234,0.87109 -0.52491,0.57984 -0.78711,1.3701 -0.78711,2.3711 l 0,5.79492 -1.69336,0 0,-14.2461 z m -33.04102,0.57813 7.85547,0 0,1.55469 -6.00586,0 0,4.02929 5.41992,0 0,1.55664 -5.41992,0 0,6.52735 -1.84961,0 0,-13.66797 z m 89.47461,0 2.0957,0 5.20899,13.66797 -1.92188,0 -1.24609,-3.50586 -6.16016,0 -1.24609,3.50586 -1.94922,0 5.21875,-13.66797 z m 1.04297,1.82031 -2.50781,6.80274 5.02539,0 -2.51758,-6.80274 z m -77.91211,1.3457 c 1.48315,0 2.5918,0.38526 3.32422,1.1543 0.73242,0.76904 1.09961,1.93555 1.09961,3.49805 l 0,5.84961 -1.68555,0 0,-1.55664 c -0.38452,0.62255 -0.86377,1.08374 -1.4375,1.38281 -0.57373,0.29297 -1.27539,0.43945 -2.10547,0.43945 -1.0498,0 -1.88525,-0.29297 -2.50781,-0.8789 -0.61646,-0.59205 -0.92578,-1.38233 -0.92578,-2.3711 0,-1.15356 0.38525,-2.02344 1.1543,-2.60937 0.77514,-0.58594 1.92895,-0.87891 3.46093,-0.87891 l 2.36133,0 0,-0.16406 c 0,-0.77515 -0.25684,-1.37378 -0.76953,-1.79492 -0.50659,-0.42725 -1.22095,-0.64063 -2.14258,-0.64063 -0.58594,0 -1.15552,0.0686 -1.71094,0.20899 -0.55542,0.14038 -1.08886,0.35205 -1.60156,0.63281 l 0,-1.55664 c 0.61646,-0.23804 1.21314,-0.41529 1.79297,-0.53125 0.57983,-0.12207 1.14404,-0.1836 1.69336,-0.1836 z m 18.18359,0 c 0.11597,0 0.24439,0.009 0.38477,0.0274 0.14038,0.0122 0.2959,0.0339 0.4668,0.0645 l 0.008,1.73047 c -0.18921,-0.10986 -0.39527,-0.18945 -0.6211,-0.23828 -0.21972,-0.0549 -0.46386,-0.082 -0.73242,-0.082 -0.95215,0 -1.68457,0.31103 -2.19726,0.93359 -0.50659,0.61646 -0.75977,1.5044 -0.75977,2.66406 l 0,5.40235 -1.69531,0 0,-10.25391 1.69531,0 0,1.59375 c 0.35401,-0.62256 0.81323,-1.08374 1.38086,-1.38281 0.56763,-0.30518 1.25855,-0.45899 2.07031,-0.45899 z m 18.19141,0 c 1.46484,0 2.61499,0.47754 3.45117,1.42969 0.83618,0.95215 1.25391,2.27051 1.25391,3.95508 0,1.67847 -0.41773,2.99683 -1.25391,3.95508 -0.83618,0.95215 -1.98633,1.42773 -3.45117,1.42773 -1.47095,0 -2.62476,-0.47558 -3.46094,-1.42773 -0.83008,-0.95825 -1.24414,-2.27661 -1.24414,-3.95508 0,-1.68457 0.41406,-3.00293 1.24414,-3.95508 0.83618,-0.95215 1.98999,-1.42969 3.46094,-1.42969 z m 12.39648,0 c 1.24512,0 2.25415,0.49561 3.0293,1.48438 0.78125,0.98877 1.17188,2.28906 1.17188,3.90039 0,1.61133 -0.39063,2.91162 -1.17188,3.90039 -0.77515,0.98877 -1.78418,1.48242 -3.0293,1.48242 -0.75073,0 -1.39819,-0.14648 -1.9414,-0.43945 -0.53711,-0.29907 -0.98194,-0.75488 -1.33594,-1.36524 l 0,5.43946 -1.69531,0 0,-14.1543 1.69531,0 0,1.55664 c 0.354,-0.61035 0.79883,-1.0625 1.33594,-1.35547 0.54321,-0.29907 1.19067,-0.44922 1.9414,-0.44922 z m 11.28711,0 c 1.3794,0 2.46997,0.44678 3.26953,1.33789 0.80567,0.88501 1.20899,2.08936 1.20899,3.61524 l 0,0.82422 -7.74609,0 c 0.0732,1.15967 0.42041,2.0459 1.04296,2.65625 0.62867,0.60425 1.5022,0.90625 2.61914,0.90625 0.64698,0 1.27271,-0.0796 1.87696,-0.23828 0.61035,-0.1587 1.21435,-0.39746 1.8125,-0.71485 l 0,1.59375 c -0.60425,0.25635 -1.22266,0.45166 -1.85742,0.58594 -0.63477,0.13428 -1.28052,0.20117 -1.9336,0.20117 -1.63574,0 -2.93237,-0.47558 -3.89062,-1.42773 -0.95215,-0.95215 -1.42774,-2.23975 -1.42774,-3.86328 0,-1.67847 0.45215,-3.00953 1.35547,-3.99219 0.90943,-0.98877 2.13184,-1.48438 3.66992,-1.48438 z m 40.32032,0 c 1.37939,0 2.46997,0.44678 3.26953,1.33789 0.80566,0.88501 1.20703,2.08936 1.20703,3.61524 l 0,0.82422 -7.74414,0 c 0.0732,1.15967 0.42041,2.0459 1.04297,2.65625 0.62866,0.60425 1.50219,0.90625 2.61914,0.90625 0.64697,0 1.2727,-0.0796 1.87695,-0.23828 0.61035,-0.1587 1.21436,-0.39746 1.8125,-0.71485 l 0,1.59375 c -0.60425,0.25635 -1.22461,0.45166 -1.85937,0.58594 -0.63478,0.13428 -1.27857,0.20117 -1.93165,0.20117 -1.63574,0 -2.93237,-0.47558 -3.89062,-1.42773 -0.95215,-0.95215 -1.42773,-2.23975 -1.42773,-3.86328 0,-1.67847 0.45214,-3.00953 1.35546,-3.99219 0.90943,-0.98877 2.13184,-1.48438 3.66993,-1.48438 z m -92.47657,0.24805 1.6836,0 0,10.25391 -1.6836,0 0,-10.25391 z m 75.87891,0 1.78516,0 3.20312,8.60547 3.20508,-8.60547 1.78515,0 -3.8457,10.25391 -2.28711,0 -3.8457,-10.25391 z m -35.42188,1.16211 c -0.89111,0 -1.59277,0.35449 -2.10546,1.0625 -0.5066,0.7019 -0.75977,1.6731 -0.75977,2.91211 0,1.23901 0.25317,2.21191 0.75977,2.91992 0.51269,0.70191 1.21435,1.05274 2.10546,1.05274 0.89112,0 1.58912,-0.35083 2.09571,-1.05274 0.51269,-0.70801 0.76953,-1.68091 0.76953,-2.91992 0,-1.23901 -0.25684,-2.21021 -0.76953,-2.91211 -0.50659,-0.70801 -1.20459,-1.0625 -2.09571,-1.0625 z m -11.98437,0.0195 c -0.90332,0 -1.61768,0.35254 -2.14258,1.06055 -0.5249,0.7019 -0.78711,1.66772 -0.78711,2.89453 0,1.22681 0.25855,2.19434 0.77735,2.90234 0.5249,0.70191 1.24292,1.05274 2.15234,1.05274 0.89722,0 1.60791,-0.35449 2.13281,-1.0625 0.5249,-0.70801 0.78711,-1.67188 0.78711,-2.89258 0,-1.2146 -0.26221,-2.17676 -0.78711,-2.88477 -0.5249,-0.71411 -1.23559,-1.07031 -2.13281,-1.07031 z m 23.70312,0 c -0.93994,0 -1.69409,0.26392 -2.26171,0.79492 -0.56153,0.53101 -0.88526,1.27979 -0.97071,2.24414 l 6.00586,-0.01 c -0.0122,-0.92163 -0.27075,-1.65576 -0.77734,-2.20508 -0.50049,-0.54932 -1.16602,-0.82422 -1.9961,-0.82422 z m 40.32032,0 c -0.93994,0 -1.69409,0.26392 -2.26172,0.79492 -0.56153,0.53101 -0.88528,1.27979 -0.9707,2.24414 l 6.00585,-0.01 c -0.0122,-0.92163 -0.2727,-1.65576 -0.77929,-2.20508 -0.50049,-0.54932 -1.16406,-0.82422 -1.99414,-0.82422 z m -99.33594,3.91797 c -1.36108,0 -2.30322,0.15552 -2.82813,0.4668 -0.5249,0.31128 -0.78711,0.84301 -0.78711,1.59375 0,0.59814 0.19532,1.07373 0.58594,1.42773 0.39673,0.3479 0.93384,0.52149 1.61133,0.52149 0.93384,0 1.68066,-0.32911 2.24219,-0.98829 0.56763,-0.66528 0.85156,-1.54785 0.85156,-2.64648 l 0,-0.375 -1.67578,0 z m -77.0918,15.75977 359.57813,0 0,254.52153 -359.57813,0 0,-254.52153 z m 389.88282,0 86.83593,0 0,254.52153 -86.83593,0 0,-254.52153 z m -118.88672,7.73046 -4.98243,23.17188 -23.51757,2.95312 20.49804,11.89844 -4.45898,23.2793 17.65234,-15.81836 20.76172,11.43555 -9.58984,-21.67578 17.29101,-16.2129 -23.57812,2.42188 -10.07617,-21.45313 z m 98.02929,47.95899 13.66797,0 0,4.72461 c 0,1.40991 -0.29297,2.49682 -0.8789,3.25976 -0.58594,0.76294 -1.41773,1.14453 -2.49805,1.14453 -0.83618,0 -1.50171,-0.19531 -1.99609,-0.58593 -0.49439,-0.39063 -0.80372,-0.96387 -0.92579,-1.72071 -0.19531,0.90943 -0.604,1.6128 -1.22656,2.11329 -0.61645,0.50659 -1.38866,0.75976 -2.31641,0.75976 -1.22069,0 -2.16284,-0.41406 -2.82812,-1.24414 -0.66528,-0.83008 -0.99805,-2.01099 -0.99805,-3.54297 l 0,-4.9082 z m 1.51953,1.84961 0,2.96679 c 0,0.99488 0.20435,1.73096 0.61329,2.20704 0.41503,0.48217 1.04614,0.72265 1.89453,0.72265 0.85449,0 1.48388,-0.24048 1.88672,-0.72265 0.40893,-0.47608 0.61328,-1.21215 0.61328,-2.20704 l 0,-2.96679 -5.00782,0 z m 6.50977,0 0,2.73828 c 0,0.90332 0.16821,1.57422 0.50391,2.01367 0.34179,0.44556 0.85888,0.66797 1.55468,0.66797 0.6897,0 1.20704,-0.22241 1.54883,-0.66797 0.3418,-0.43945 0.51172,-1.11035 0.51172,-2.01367 l 0,-2.73828 -4.11914,0 z m -5.04492,10.29101 c 1.15356,0 2.02344,0.38526 2.60937,1.1543 0.58594,0.77515 0.87891,1.92896 0.87891,3.46094 l 0,2.36133 0.16406,0 c 0.77515,0 1.37378,-0.25684 1.79492,-0.76953 0.42725,-0.5066 0.64063,-1.22095 0.64063,-2.14258 0,-0.58594 -0.0706,-1.15552 -0.21094,-1.71094 -0.14038,-0.55542 -0.3501,-1.09082 -0.63086,-1.60352 l 1.55664,0 c 0.23804,0.61646 0.41529,1.21509 0.53125,1.79493 0.12207,0.57983 0.18164,1.14405 0.18164,1.69335 0,1.48316 -0.3833,2.5918 -1.15234,3.32422 -0.76904,0.73243 -1.93555,1.09766 -3.49805,1.09766 l -5.84961,0 0,-1.68359 1.55664,0 c -0.62255,-0.38453 -1.08374,-0.86377 -1.38281,-1.4375 -0.29297,-0.57373 -0.43945,-1.27539 -0.43945,-2.10547 0,-1.04981 0.29297,-1.88721 0.8789,-2.50977 0.59205,-0.61645 1.38233,-0.92383 2.3711,-0.92383 z m 0.10937,1.68555 c -0.59814,0 -1.07373,0.19531 -1.42773,0.58594 -0.3479,0.39673 -0.52149,0.93384 -0.52149,1.61133 0,0.93383 0.32911,1.68066 0.98829,2.24218 0.66528,0.56763 1.54785,0.85157 2.64648,0.85157 l 0.375,0 0,-1.67579 c 0,-1.36108 -0.15552,-2.30322 -0.4668,-2.82812 -0.31128,-0.5249 -0.84301,-0.78711 -1.59375,-0.78711 z m -3.09375,10.39063 10.25391,0 0,1.69336 -1.59375,0 c 0.61645,0.40282 1.07764,0.8767 1.38281,1.41992 0.30518,0.54931 0.45703,1.18042 0.45703,1.89453 0,1.17798 -0.36523,2.06958 -1.09765,2.67383 -0.72632,0.60424 -1.79688,0.90625 -3.21289,0.90625 l -6.18946,0 0,-1.68555 6.13282,0 c 0.97045,0 1.69751,-0.18799 2.17968,-0.56641 0.48218,-0.37841 0.72266,-0.94629 0.72266,-1.70312 0,-0.90943 -0.28931,-1.62744 -0.86914,-2.15235 -0.57984,-0.5249 -1.37013,-0.7871 -2.37109,-0.7871 l -5.79493,0 0,-1.69336 z m -264.71484,5.16015 0,3.98047 3.14453,0 0,-3.98047 -3.14453,0 z m 23.39648,0 0,26.5918 3.16016,0 0,-10.81836 c 0,-1.86849 0.49089,-3.34343 1.4707,-4.42578 0.97982,-1.08236 2.31804,-1.625 4.01563,-1.625 1.41276,0 2.47135,0.4515 3.17773,1.35156 0.70638,0.90007 1.06055,2.25488 1.06055,4.06641 l 0,11.45117 3.14453,0 0,-11.55274 c 0,-2.64322 -0.56348,-4.6442 -1.69141,-6 -1.12793,-1.36718 -2.79134,-2.05078 -4.99023,-2.05078 -1.33301,0 -2.51367,0.28581 -3.53906,0.85547 -1.014,0.56966 -1.89649,1.42936 -2.64844,2.58008 l 0,-10.42383 -3.16016,0 z m 130.87305,0.61524 c -3.8623,0 -6.90527,1.18489 -9.12695,3.55468 -2.22168,2.3584 -3.33203,5.58789 -3.33203,9.68946 0,4.09017 1.11035,7.31966 3.33203,9.68945 2.22168,2.3584 5.26465,3.53711 9.12695,3.53711 1.50391,0 2.92708,-0.20508 4.27148,-0.61523 1.3558,-0.41016 2.63803,-1.0254 3.84571,-1.84571 l 0,-3.60547 c -1.16211,1.08236 -2.403,1.89226 -3.72461,2.42774 -1.31022,0.53548 -2.70638,0.80273 -4.1875,0.80273 -2.91667,0 -5.14974,-0.88867 -6.69922,-2.66601 -1.54948,-1.78874 -2.32422,-4.36361 -2.32422,-7.72461 0,-3.3724 0.77474,-5.94727 2.32422,-7.72461 1.54948,-1.78874 3.78255,-2.6836 6.69922,-2.6836 1.48112,0 2.87728,0.26726 4.1875,0.80274 1.32161,0.53548 2.5625,1.34538 3.72461,2.42773 l 0,-3.64062 c -1.1849,-0.80892 -2.45475,-1.41179 -3.81055,-1.81055 -1.3444,-0.41016 -2.77995,-0.61523 -4.30664,-0.61523 z m -192.55078,0.46093 0,25.51563 3.45117,0 0,-12.18555 10.11719,0 0,-2.90625 -10.11719,0 0,-7.51953 11.21094,0 0,-2.9043 -14.66211,0 z m 160.43945,0 0,25.51563 3.45117,0 0,-10.25391 4.3418,0 c 2.8597,0 5.01823,-0.6442 6.47656,-1.93164 1.46973,-1.28743 2.20508,-3.19108 2.20508,-5.70898 0,-2.49512 -0.73535,-4.3864 -2.20508,-5.67383 -1.45833,-1.29883 -3.61686,-1.94727 -6.47656,-1.94727 l -7.79297,0 z m 3.45117,2.83594 4.3418,0 c 1.60645,0 2.84733,0.41634 3.72461,1.24805 0.87728,0.8317 1.31641,2.01041 1.31641,3.53711 0,1.53808 -0.43913,2.72298 -1.31641,3.55468 -0.87728,0.83171 -2.11816,1.24805 -3.72461,1.24805 l -4.3418,0 0,-9.58789 z m 144.22266,2.16016 c 1.67236,0 2.98706,0.45947 3.94531,1.375 0.95826,0.92163 1.4375,2.18017 1.4375,3.77929 0,0.5188 -0.0542,1.0271 -0.16406,1.52149 -0.10376,0.49438 -0.26294,0.97363 -0.47656,1.4375 l -1.57422,0 c 0.26245,-0.47608 0.45776,-0.95532 0.58594,-1.4375 0.13427,-0.47608 0.20117,-0.95899 0.20117,-1.44727 0,-1.09253 -0.34717,-1.94067 -1.04297,-2.54492 -0.6897,-0.60425 -1.66089,-0.90625 -2.91211,-0.90625 -1.25122,0 -2.22412,0.302 -2.91992,0.90625 -0.6897,0.60425 -1.03516,1.45239 -1.03516,2.54492 0,0.48828 0.0652,0.97119 0.19336,1.44727 0.13428,0.48218 0.3313,0.96142 0.59375,1.4375 l -1.55664,0 c -0.21973,-0.46997 -0.38428,-0.95826 -0.49414,-1.46484 -0.10986,-0.5005 -0.16406,-1.03589 -0.16406,-1.60352 0,-1.54419 0.48462,-2.77026 1.45508,-3.67969 0.97046,-0.90942 2.27978,-1.36523 3.92773,-1.36523 z m -284.58008,0.91601 c -1.02539,0 -2.07975,0.11394 -3.16211,0.3418 -1.08235,0.21647 -2.19889,0.54785 -3.34961,0.99219 l 0,2.90429 c 0.95703,-0.52408 1.95345,-0.91569 2.99024,-1.17773 1.03678,-0.26204 2.10156,-0.39453 3.19531,-0.39453 1.72038,0 3.05436,0.39974 4,1.19726 0.95703,0.78614 1.43555,1.90267 1.43555,3.34961 l 0,0.30664 -4.41016,0 c -2.8597,0 -5.01204,0.54688 -6.45898,1.64063 -1.43555,1.09375 -2.1543,2.71777 -2.1543,4.87109 0,1.84571 0.57585,3.32064 1.72656,4.42578 1.16211,1.09375 2.72396,1.64063 4.6836,1.64063 1.54948,0 2.85872,-0.27344 3.92968,-0.82031 1.07097,-0.55827 1.96582,-1.41797 2.6836,-2.58008 l 0,2.90625 3.14453,0 0,-10.92188 c 0,-2.91666 -0.68359,-5.09179 -2.05078,-6.52734 -1.36719,-1.43555 -3.43457,-2.1543 -6.20313,-2.1543 z m 33.93946,0 c -1.5153,0 -2.80176,0.28581 -3.86133,0.85547 -1.05957,0.55827 -1.92123,1.41797 -2.58203,2.58008 l 0,-2.97266 -3.16016,0 0,19.14063 3.16016,0 0,-10.08399 c 0,-2.16471 0.47233,-3.82194 1.41796,-4.97265 0.95704,-1.16211 2.32422,-1.74414 4.10157,-1.74414 0.5013,0 0.95703,0.0518 1.36719,0.15429 0.42154,0.0912 0.81087,0.24024 1.16406,0.44532 l -0.0176,-3.23047 c -0.31901,-0.057 -0.611,-0.0964 -0.87305,-0.11914 -0.26204,-0.0342 -0.50032,-0.0527 -0.71679,-0.0527 z m 33.95703,0 c -2.74577,0 -4.89812,0.88867 -6.45899,2.66602 -1.54948,1.77734 -2.32422,4.23828 -2.32422,7.38281 0,3.13314 0.77474,5.59408 2.32422,7.38281 1.56087,1.77735 3.71322,2.66602 6.45899,2.66602 2.73437,0 4.88248,-0.88867 6.44336,-2.66602 1.56087,-1.78873 2.34179,-4.24967 2.34179,-7.38281 0,-3.14453 -0.78092,-5.60547 -2.34179,-7.38281 -1.56088,-1.77735 -3.70899,-2.66602 -6.44336,-2.66602 z m 23.14062,0 c -1.40137,0 -2.60905,0.27963 -3.62305,0.83789 -1.0026,0.54688 -1.83528,1.38998 -2.49609,2.5293 l 0,-2.9043 -3.16015,0 0,26.41993 3.16015,0 0,-10.15039 c 0.66081,1.13932 1.49349,1.98665 2.49609,2.54492 1.014,0.54687 2.22168,0.82031 3.62305,0.82031 2.32422,0 4.20931,-0.92188 5.65625,-2.76758 1.45834,-1.8457 2.1875,-4.27344 2.1875,-7.28125 0,-3.00781 -0.72916,-5.43359 -2.1875,-7.2793 -1.44694,-1.8457 -3.33203,-2.76953 -5.65625,-2.76953 z m 21.07227,0 c -2.8711,0 -5.15593,0.92383 -6.85352,2.76953 -1.6862,1.83431 -2.5293,4.31804 -2.5293,7.45118 0,3.0306 0.88868,5.43359 2.66602,7.21093 1.78874,1.77735 4.21029,2.66602 7.26367,2.66602 1.21908,0 2.42058,-0.12435 3.60547,-0.375 1.1849,-0.25065 2.34082,-0.61523 3.46875,-1.09375 l 0,-2.97461 c -1.11654,0.59245 -2.24349,1.03776 -3.38281,1.33398 -1.12793,0.29623 -2.29623,0.44336 -3.50391,0.44336 -2.08496,0 -3.71517,-0.56347 -4.88867,-1.6914 -1.16211,-1.13933 -1.81055,-2.79037 -1.94726,-4.95508 l 14.45703,0 0,-1.53906 c 0,-2.84831 -0.75196,-5.09798 -2.25586,-6.75 -1.49252,-1.66341 -3.52474,-2.4961 -6.09961,-2.4961 z m -97.36133,0.46289 0,19.14063 3.14453,0 0,-19.14063 -3.14453,0 z m 75.51953,2.16993 c 1.66341,0 2.96843,0.6608 3.91406,1.98242 0.95703,1.31022 1.43555,3.12077 1.43555,5.43359 0,2.31283 -0.47852,4.13151 -1.43555,5.45313 -0.94563,1.31022 -2.25065,1.96484 -3.91406,1.96484 -1.66341,0 -2.97461,-0.65462 -3.93164,-1.96484 -0.94564,-1.32162 -1.41797,-3.1403 -1.41797,-5.45313 0,-2.31282 0.47233,-4.12337 1.41797,-5.43359 0.95703,-1.32162 2.26823,-1.98242 3.93164,-1.98242 z m -22.37109,0.0332 c 1.6748,0 3.0026,0.66699 3.98242,2 0.97982,1.32161 1.46875,3.11556 1.46875,5.38281 0,2.27865 -0.48893,4.07878 -1.46875,5.40039 -0.97982,1.32162 -2.30762,1.98242 -3.98242,1.98242 -1.69759,0 -3.03581,-0.65462 -4.01563,-1.96484 -0.96842,-1.32161 -1.45312,-3.12793 -1.45312,-5.41797 0,-2.29004 0.49088,-4.09017 1.4707,-5.40039 0.97982,-1.32161 2.31185,-1.98242 3.99805,-1.98242 z m 44.24609,0 c 1.54948,0 2.79037,0.51367 3.72461,1.53906 0.94564,1.02539 1.43034,2.39876 1.45313,4.11914 l -11.21094,0.0156 c 0.1595,-1.80013 0.76432,-3.19434 1.8125,-4.18555 1.05957,-0.99121 2.46614,-1.48828 4.2207,-1.48828 z m -110.16211,7.31445 3.12891,0 0,0.70117 c 0,2.05079 -0.53028,3.69759 -1.58985,4.93946 -1.04817,1.23047 -2.44433,1.8457 -4.1875,1.8457 -1.26464,0 -2.26725,-0.3252 -3.00781,-0.97461 -0.72917,-0.66081 -1.09375,-1.54948 -1.09375,-2.66602 0,-1.40136 0.49089,-2.3916 1.4707,-2.97265 0.97982,-0.58106 2.73861,-0.87305 5.2793,-0.87305 z m 277.48242,0.0996 10.25391,0 0,1.69336 -1.59375,0 c 0.62256,0.354 1.08374,0.81519 1.38281,1.38281 0.30518,0.56763 0.45703,1.25659 0.45703,2.06836 0,0.11597 -0.009,0.24439 -0.0273,0.38477 -0.0122,0.14038 -0.032,0.29591 -0.0625,0.46679 l -1.73047,0.01 c 0.10986,-0.18921 0.1875,-0.39722 0.23633,-0.62305 0.0549,-0.21972 0.084,-0.46386 0.084,-0.73242 0,-0.95215 -0.31103,-1.68457 -0.93359,-2.19726 -0.61646,-0.5066 -1.50635,-0.75977 -2.66602,-0.75977 l -5.40039,0 0,-1.69336 z m 5.11719,6.65625 c 1.68457,0 3.00293,0.41406 3.95508,1.24414 0.95215,0.83618 1.42773,1.98999 1.42773,3.46094 0,1.46484 -0.47558,2.61499 -1.42773,3.45117 -0.95215,0.83618 -2.27051,1.25586 -3.95508,1.25586 -1.67847,0 -2.99683,-0.41968 -3.95508,-1.25586 -0.95215,-0.83618 -1.42773,-1.98633 -1.42773,-3.45117 0,-1.47095 0.47558,-2.62476 1.42773,-3.46094 0.95825,-0.83008 2.27661,-1.24414 3.95508,-1.24414 z m 0,1.77539 c -1.22681,0 -2.19434,0.2605 -2.90234,0.7793 -0.70191,0.5249 -1.05274,1.24097 -1.05274,2.15039 0,0.89722 0.35449,1.60791 1.0625,2.13281 0.70801,0.5249 1.67188,0.78906 2.89258,0.78906 1.2146,0 2.17676,-0.26416 2.88477,-0.78906 0.71411,-0.5249 1.07031,-1.23559 1.07031,-2.13281 0,-0.90332 -0.35449,-1.61768 -1.0625,-2.14258 -0.70191,-0.5249 -1.66577,-0.78711 -2.89258,-0.78711 z m 3.82813,9.08203 1.30859,0 0,1.61133 0.71289,0 c 1.14136,0 1.97144,0.26587 2.49023,0.79688 0.52491,0.531 0.78907,1.37378 0.78907,2.52734 l 0,1.5918 -1.40235,0 0,-1.61133 c 0,-0.60425 -0.12109,-1.02368 -0.36523,-1.26172 -0.24414,-0.23193 -0.68359,-0.34961 -1.31836,-0.34961 l -0.90625,0 0,2.77539 -1.30859,0 0,-2.77539 -8.94532,0 0,-1.69336 8.94532,0 0,-1.61133 z m 0,6.33594 1.30859,0 0,1.23633 2.91016,0 0,1.69336 -2.91016,0 0,3.4707 -1.30859,0 0,-3.4707 -5.56641,0 c -0.83618,0 -1.37329,0.11206 -1.61133,0.33789 -0.23804,0.23193 -0.35742,0.70044 -0.35742,1.40234 l 0,1.73047 -1.41016,0 0,-1.73047 c 0,-1.30005 0.24048,-2.19702 0.72266,-2.6914 0.48828,-0.49439 1.37451,-0.74219 2.65625,-0.74219 l 5.56641,0 0,-1.23633 z m 1.07031,14.0625 c 1.20849,0 2.15967,0.42505 2.85547,1.27344 0.6958,0.85449 1.04492,2.02807 1.04492,3.52344 0,0.64086 -0.0579,1.2937 -0.17383,1.95898 -0.11597,0.66528 -0.28955,1.34717 -0.52148,2.04297 l -1.80469,0 c 0.33569,-0.70191 0.58716,-1.36377 0.75195,-1.98633 0.1648,-0.62256 0.2461,-1.22485 0.2461,-1.80469 0,-1.00708 -0.19532,-1.78466 -0.58594,-2.33398 -0.39063,-0.54321 -0.9458,-0.81445 -1.66602,-0.81445 -0.60425,0 -1.06177,0.17895 -1.37304,0.53906 -0.30518,0.36621 -0.55298,1.05713 -0.74219,2.07031 l -0.22852,1.11523 c -0.26245,1.37941 -0.72729,2.39576 -1.39258,3.04883 -0.65918,0.65918 -1.54345,0.99024 -2.65429,0.99024 -1.32447,0 -2.32813,-0.44678 -3.01172,-1.33789 -0.6836,-0.88501 -1.02539,-2.18531 -1.02539,-3.90039 0,-0.64698 0.0723,-1.33594 0.21875,-2.06836 0.14648,-0.72632 0.36352,-1.48047 0.65039,-2.26172 l 1.9043,0 c -0.42115,0.75073 -0.73755,1.48681 -0.95118,2.20703 -0.21362,0.72021 -0.32031,1.42725 -0.32031,2.12305 0,1.0559 0.20606,1.87158 0.6211,2.44531 0.41503,0.57373 1.0083,0.86133 1.77734,0.86133 0.67139,0 1.1958,-0.20801 1.57422,-0.62305 0.37842,-0.40894 0.66235,-1.0835 0.85156,-2.02344 l 0.21875,-1.12695 c 0.27466,-1.3794 0.70508,-2.37769 1.29102,-2.99414 0.58593,-0.61646 1.40161,-0.92383 2.44531,-0.92383 z m -1.07031,11.16992 1.30859,0 0,1.23633 2.91016,0 0,1.69336 -2.91016,0 0,3.46875 -1.30859,0 0,-3.46875 -5.56641,0 c -0.83618,0 -1.37329,0.11206 -1.61133,0.33789 -0.23804,0.23193 -0.35742,0.69849 -0.35742,1.40039 l 0,1.73047 -1.41016,0 0,-1.73047 c 0,-1.30005 0.24048,-2.19702 0.72266,-2.69141 0.48828,-0.49437 1.37451,-0.74023 2.65625,-0.74023 l 5.56641,0 0,-1.23633 z"
       id="rect4136"
       inkscape:connector-curvature="0" />
  </g>
</svg>
