<?xml version="1.0" encoding="UTF-8" standalone="no"?>
<!-- Created with Inkscape (http://www.inkscape.org/) -->

<svg
   xmlns:dc="http://purl.org/dc/elements/1.1/"
   xmlns:cc="http://creativecommons.org/ns#"
   xmlns:rdf="http://www.w3.org/1999/02/22-rdf-syntax-ns#"
   xmlns:svg="http://www.w3.org/2000/svg"
   xmlns="http://www.w3.org/2000/svg"
   xmlns:sodipodi="http://sodipodi.sourceforge.net/DTD/sodipodi-0.dtd"
   xmlns:inkscape="http://www.inkscape.org/namespaces/inkscape"
   version="1.1"
   width="850"
   height="587.5"
   id="svg3004"
   xml:space="preserve"
   inkscape:version="0.48.5 r10040"
   sodipodi:docname="fairhope-bw.ai.svg"><sodipodi:namedview
     pagecolor="#ffffff"
     bordercolor="#666666"
     borderopacity="1"
     objecttolerance="10"
     gridtolerance="10"
     guidetolerance="10"
     inkscape:pageopacity="0"
     inkscape:pageshadow="2"
     inkscape:window-width="1440"
     inkscape:window-height="845"
     id="namedview54"
     showgrid="false"
     inkscape:zoom="0.39294118"
     inkscape:cx="427.54491"
     inkscape:cy="293.75"
     inkscape:window-x="0"
     inkscape:window-y="0"
     inkscape:window-maximized="1"
     inkscape:current-layer="svg3004" /><metadata
     id="metadata3010"><rdf:RDF><cc:Work
         rdf:about=""><dc:format>image/svg+xml</dc:format><dc:type
           rdf:resource="http://purl.org/dc/dcmitype/StillImage" /><dc:title /></cc:Work></rdf:RDF></metadata><defs
     id="defs3008"><clipPath
       id="clipPath3018"><path
         d="M 0,470 680,470 680,0 0,0 0,470 z"
         id="path3020" /></clipPath><clipPath
       id="clipPath3078"><path
         d="M 0,470 680,470 680,0 0,0 0,470 z"
         id="path3080" /></clipPath><filter
       x="0"
       y="0"
       width="1"
       height="1"
       color-interpolation-filters="sRGB"
       id="filter3086"><feColorMatrix
         id="feColorMatrix3088"
         values="0"
         type="saturate" /></filter><filter
       x="0"
       y="0"
       width="1"
       height="1"
       color-interpolation-filters="sRGB"
       id="filter3090"><feColorMatrix
         result="fbSourceGraphic"
         id="feColorMatrix3092"
         values="0"
         type="saturate" /><feColorMatrix
         id="feColorMatrix3094"
         values="0 0 0 -1 0 0 0 0 -1 0 0 0 0 -1 0 0 0 0 1 0"
         in="fbSourceGraphic"
         result="fbSourceGraphicAlpha" /><feGaussianBlur
         in="fbSourceGraphic"
         result="result8"
         stdDeviation="0.5"
         id="feGaussianBlur3096" /><feConvolveMatrix
         order="3 3"
         kernelMatrix="1 1 1 1 -8 1 1 1 1 "
         in="result8"
         divisor="1"
         targetX="1"
         targetY="1"
         preserveAlpha="true"
         result="result0"
         bias="0"
         id="feConvolveMatrix3098" /><feColorMatrix
         result="result3"
         values="0 -6 0 0 1 0 -6 0 0 1 0 -6 0 0 1 0 0 0 1 0 "
         id="feColorMatrix3100" /><feComposite
         in2="result3"
         operator="arithmetic"
         k1="1"
         k2="0"
         k3="0.3"
         k4="0"
         in="fbSourceGraphic"
         result="fbSourceGraphic"
         id="feComposite3102" /><feGaussianBlur
         result="result7"
         in="fbSourceGraphic"
         stdDeviation="0.01"
         id="feGaussianBlur3104" /><feBlend
         in2="result7"
         mode="multiply"
         in="result7"
         result="result9"
         id="feBlend3106" /><feComposite
         in2="fbSourceGraphic"
         operator="in"
         id="feComposite3108" /></filter><filter
       inkscape:label="Invert hue"
       inkscape:menu="Color"
       inkscape:menu-tooltip="Invert hue, or rotate it"
       x="0"
       y="0"
       width="1"
       height="1"
       color-interpolation-filters="sRGB"
       id="filter3041"><feColorMatrix
         values="1"
         in="SourceGraphic"
         type="saturate"
         result="result2"
         id="feColorMatrix3043" /><feFlood
         flood-color="rgb(254,102,0)"
         flood-opacity="1"
         result="result1"
         id="feFlood3045" /><feBlend
         in2="result2"
         mode="multiply"
         in="result1"
         result="result3"
         id="feBlend3047" /><feComposite
         operator="in"
         k2="1"
         result="fbSourceGraphic"
         in2="SourceGraphic"
         id="feComposite3049" /><feColorMatrix
         result="fbSourceGraphicAlpha"
         in="fbSourceGraphic"
         values="0 0 0 -1 0 0 0 0 -1 0 0 0 0 -1 0 0 0 0 1 0"
         id="feColorMatrix3113" /><feColorMatrix
         id="feColorMatrix3115"
         type="hueRotate"
         values="180"
         result="result1"
         in="fbSourceGraphic" /></filter></defs><g
     transform="matrix(1.9132185,0,0,-1.8281611,-350.49448,713.20661)"
     id="g3012"
     style="filter:url(#filter3041)"><g
       id="g3014"
       style="filter:url(#filter3086)"><g
         clip-path="url(#clipPath3018)"
         id="g3016"><g
           transform="translate(341.752,93.8066)"
           id="g3022"><path
             d="M 0,0 C -78.034,-0.719 -141.877,61.926 -142.596,139.922 -143.312,217.918 -80.635,281.73 -2.602,282.45 75.434,283.169 139.276,220.525 139.995,142.528 140.713,64.531 78.035,0.721 0,0 z"
             id="path3024"
             style="fill:none;stroke:#1baaa1;stroke-width:3;stroke-linecap:butt;stroke-linejoin:miter;stroke-miterlimit:4;stroke-opacity:1;stroke-dasharray:none"
             inkscape:connector-curvature="0" /></g><g
           transform="translate(343.1855,112.0313)"
           id="g3026"><path
             d="m 0,0 c -66.558,-1.209 -121.492,51.766 -122.701,118.322 -1.209,66.557 51.766,121.491 118.324,122.7 C 62.179,242.23 117.114,189.256 118.323,122.7 119.532,56.143 66.556,1.209 0,0"
             id="path3028"
             style="fill:#1baaa1;fill-opacity:1;fill-rule:nonzero;stroke:none"
             inkscape:connector-curvature="0" /></g><g
           transform="translate(402.5596,337.0566)"
           id="g3030"><path
             d="m 0,0 -0.613,33.748 c -0.24,0.231 -0.467,0.473 -0.7,0.709 -1.389,0.339 -2.578,1.222 -3.951,1.645 -0.203,0.194 -0.393,0.401 -0.592,0.6 -0.581,0.031 -1.164,0.049 -1.752,0.024 -0.338,0.324 -0.659,0.663 -0.986,0.998 -0.734,0.036 -1.469,0.07 -2.203,0.111 -0.361,0.349 -0.708,0.712 -1.058,1.073 -0.632,0.253 -1.291,0.431 -1.971,0.538 -0.112,0.108 -0.217,0.22 -0.324,0.329 -1.791,0.461 -3.594,0.892 -5.375,1.402 -1.282,0.366 -2.554,0.8 -3.829,1.234 -0.797,0.1 -1.592,0.197 -2.367,0.32 -0.175,0.17 -0.341,0.35 -0.514,0.521 -1.799,0.123 -3.585,0.284 -5.342,0.706 -0.198,0.191 -0.388,0.389 -0.578,0.586 -0.027,0.002 -0.053,0.001 -0.079,0.003 l 0.32,-0.428 c -0.5,0.177 -0.997,0.331 -1.496,0.464 -0.061,0 -0.119,0.007 -0.179,0.005 -0.062,-10e-4 -0.148,0.033 -0.25,0.091 -0.641,0.154 -1.287,0.27 -1.94,0.353 l 0.356,-0.477 c -0.707,0.199 -1.421,0.403 -2.138,0.606 -0.179,0.004 -0.358,0.014 -0.54,0.012 -0.065,0.063 -0.128,0.129 -0.19,0.194 -0.746,0.206 -1.496,0.405 -2.25,0.589 -0.07,-0.051 -0.14,-0.102 -0.21,-0.152 -1.018,0.027 -2.009,0.222 -2.999,0.429 -0.148,-0.087 -0.258,-0.131 -0.313,-0.116 -2.028,0.529 -4.039,0.716 -6.125,0.5 0.106,0.106 0.225,0.197 0.334,0.301 -0.042,0 -0.084,10e-4 -0.126,10e-4 -0.112,-0.08 -0.222,-0.16 -0.333,-0.24 -0.286,0.102 -0.575,0.177 -0.866,0.246 -0.151,0.001 -0.305,0.005 -0.456,0.003 -0.073,-10e-4 -0.188,0.06 -0.315,0.142 -0.667,0.102 -1.343,0.141 -2.023,0.157 -0.051,-0.037 -0.102,-0.074 -0.153,-0.11 -2.379,0.017 -4.75,0.213 -7.125,0 0.12,0.12 0.256,0.224 0.379,0.342 -0.04,-0.001 -0.08,-0.002 -0.12,-0.003 -0.128,-0.093 -0.256,-0.185 -0.384,-0.277 -1.34,0.107 -2.68,0.195 -4.023,0.226 -0.076,-0.054 -0.151,-0.109 -0.227,-0.163 -1.163,0.009 -2.328,0.064 -3.49,0.069 -0.058,-0.003 -0.115,-0.002 -0.172,-0.005 l 0.146,-0.196 -1.5,-0.027 c -0.034,0.033 -0.066,0.069 -0.101,0.103 -0.619,-0.092 -1.246,-0.118 -1.873,-0.134 -0.211,-0.038 -0.424,-0.073 -0.635,-0.123 0.064,0.065 0.139,0.121 0.205,0.185 l -0.002,0.002 c -0.038,-0.006 -0.076,-0.009 -0.113,-0.015 -0.051,-0.036 -0.102,-0.073 -0.152,-0.109 -0.138,0.019 -0.276,0.026 -0.413,0.035 -1.694,-0.186 -3.414,-0.108 -5.078,-0.52 0.058,-0.079 0.117,-0.157 0.176,-0.236 -1.549,-0.408 -3.091,-0.239 -4.645,-0.147 0.107,-0.144 0.215,-0.288 0.322,-0.432 -2.347,-0.044 -4.716,-0.11 -6.812,-1.29 -0.037,-0.021 -0.172,0.078 -0.373,0.263 -1.71,-0.33 -3.477,-0.344 -5.117,-0.898 0.115,-0.153 0.229,-0.306 0.344,-0.459 -1.787,-0.552 -3.625,-0.887 -5.482,-1.1 -0.059,0.058 -0.114,0.119 -0.172,0.176 -0.5,-0.179 -1.002,-0.352 -1.51,-0.51 0.004,-0.006 0.023,-0.029 0.021,-0.029 -1.09,-0.619 -2.287,-0.877 -3.477,-1.23 -0.132,0.128 -0.256,0.262 -0.386,0.391 -1.134,-0.378 -2.241,-0.818 -3.263,-1.458 -0.019,-0.011 -0.083,0.03 -0.164,0.094 -1.026,-0.493 -2.128,-0.807 -3.147,-1.321 -0.056,0.054 -0.109,0.112 -0.164,0.167 -0.545,-0.299 -1.121,-0.484 -1.721,-0.586 -2.07,-0.715 -3.985,-1.829 -6.063,-2.559 -0.025,-0.009 -0.076,0.017 -0.13,0.047 -2.311,-1.113 -4.735,-1.985 -7,-3.192 l 0.627,-34.503 c -33.75,-22.003 -55.883,-59.838 -55.159,-103.136 0.856,-47.1 29.145,-87.182 68.993,-106.289 l -1.458,80.324 c -0.537,28.359 22.967,51.742 52.532,52.279 29.505,0.536 53.779,-21.98 54.363,-50.277 l 1.458,-80.317 c 39.144,20.422 65.923,61.557 65.136,108.717 C 58.14,-57.766 34.587,-20.761 0,0"
             id="path3032"
             style="fill:#4d4c4e;fill-opacity:1;fill-rule:nonzero;stroke:none"
             inkscape:connector-curvature="0" /></g><g
           transform="translate(364.1035,169.7461)"
           id="g3034"><path
             d="m 0,0 c -8.18,0.988 -14,8.424 -13.012,16.596 0.991,8.168 8.418,14 16.596,13.009 C 6.596,29.24 9.287,28 11.436,26.172 l 5.849,4.496 c -0.683,0.666 -1.408,1.291 -2.176,1.873 l 2.922,3.881 c -1.869,1.418 -3.927,2.586 -6.15,3.48 l -1.817,-4.519 c -1.757,0.705 -3.636,1.195 -5.609,1.433 l 0.586,4.83 c -2.404,0.292 -4.775,0.258 -7.059,-0.062 l 0.69,-4.818 c -1.943,-0.282 -3.818,-0.809 -5.58,-1.561 l -1.91,4.467 c -2.184,-0.926 -4.221,-2.133 -6.075,-3.592 l 3.002,-3.826 c -1.513,-1.195 -2.879,-2.58 -4.048,-4.137 l -3.897,2.922 c -1.401,-1.861 -2.576,-3.932 -3.464,-6.143 l 4.518,-1.816 c -0.711,-1.762 -1.202,-3.637 -1.442,-5.611 l -4.829,0.584 c -0.291,-2.408 -0.256,-4.77 0.071,-7.069 l 4.818,0.692 c 0.275,-1.947 0.801,-3.817 1.56,-5.574 l -4.482,-1.909 c 0.934,-2.181 2.147,-4.23 3.6,-6.074 l 3.826,3 c 1.193,-1.521 2.58,-2.879 4.135,-4.055 l -2.92,-3.882 c 1.867,-1.418 3.925,-2.584 6.146,-3.479 l 1.82,4.514 c 1.756,-0.701 3.637,-1.192 5.606,-1.428 l -0.584,-4.832 c 2.404,-0.291 4.773,-0.256 7.061,0.063 l -0.69,4.82 c 1.943,0.279 3.815,0.806 5.578,1.556 l 1.91,-4.464 c 2.18,0.923 4.221,2.132 6.075,3.591 l -3.002,3.827 c 0.818,0.646 1.587,1.349 2.312,2.105 L 12.645,4.576 C 9.506,1.252 4.887,-0.594 0,0"
             id="path3036"
             style="fill:#ffffff;fill-opacity:1;fill-rule:nonzero;stroke:none"
             inkscape:connector-curvature="0" /></g></g></g><text
       transform="matrix(0.99999769,0.00215064,0.00215064,-0.99999769,300.3558,157.8212)"
       id="text3038"><tspan
         x="0"
         y="0"
         id="tspan3040"
         style="font-size:65.56175232px;font-variant:normal;font-weight:normal;font-stretch:normal;writing-mode:lr-tb;fill:#ffffff;fill-opacity:1;fill-rule:nonzero;stroke:none;font-family:Alpaca Scarlett Demo;-inkscape-font-specification:AlpacaScarlettDemo">P</tspan></text>
<text
       transform="matrix(0.66716681,0.74490834,0.74490834,-0.66716681,268.9075,259.0426)"
       id="text3042"><tspan
         x="0"
         y="0"
         id="tspan3044"
         style="font-size:28.99994278px;font-variant:normal;font-weight:normal;font-stretch:normal;writing-mode:lr-tb;fill:#ffffff;fill-opacity:1;fill-rule:nonzero;stroke:none;font-family:Bebas;-inkscape-font-specification:Bebas">F</tspan></text>
<text
       transform="matrix(0.8135503,0.58149455,0.58149455,-0.8135503,281.463,272.5356)"
       id="text3046"><tspan
         x="0"
         y="0"
         id="tspan3048"
         style="font-size:28.99992752px;font-variant:normal;font-weight:normal;font-stretch:normal;writing-mode:lr-tb;fill:#ffffff;fill-opacity:1;fill-rule:nonzero;stroke:none;font-family:Bebas;-inkscape-font-specification:Bebas">A</tspan></text>
<text
       transform="matrix(0.92111515,0.38929023,0.38929023,-0.92111515,302.7511,285.9164)"
       id="text3050"><tspan
         x="0"
         y="0"
         id="tspan3052"
         style="font-size:28.99995804px;font-variant:normal;font-weight:normal;font-stretch:normal;writing-mode:lr-tb;fill:#ffffff;fill-opacity:1;fill-rule:nonzero;stroke:none;font-family:Bebas;-inkscape-font-specification:Bebas">I</tspan></text>
<text
       transform="matrix(0.98326657,0.18217261,0.18217261,-0.98326657,317.0126,291.4546)"
       id="text3054"><tspan
         x="0"
         y="0"
         id="tspan3056"
         style="font-size:28.99996948px;font-variant:normal;font-weight:normal;font-stretch:normal;writing-mode:lr-tb;fill:#ffffff;fill-opacity:1;fill-rule:nonzero;stroke:none;font-family:Bebas;-inkscape-font-specification:Bebas">R</tspan></text>
<text
       transform="matrix(0.99701188,-0.07724839,-0.07724839,-0.99701188,340.8387,294.7316)"
       id="text3058"><tspan
         x="0"
         y="0"
         id="tspan3060"
         style="font-size:28.99995613px;font-variant:normal;font-weight:normal;font-stretch:normal;writing-mode:lr-tb;fill:#ffffff;fill-opacity:1;fill-rule:nonzero;stroke:none;font-family:Bebas;-inkscape-font-specification:Bebas">H</tspan></text>
<text
       transform="matrix(0.94377796,-0.33058004,-0.33058004,-0.94377796,364.2274,291.8121)"
       id="text3062"><tspan
         x="0"
         y="0"
         id="tspan3064"
         style="font-size:28.99993515px;font-variant:normal;font-weight:normal;font-stretch:normal;writing-mode:lr-tb;fill:#ffffff;fill-opacity:1;fill-rule:nonzero;stroke:none;font-family:Bebas;-inkscape-font-specification:Bebas">O</tspan></text>
<text
       transform="matrix(0.83003421,-0.55771248,-0.55771248,-0.83003421,385.983,283.0313)"
       id="text3066"><tspan
         x="0"
         y="0"
         id="tspan3068"
         style="font-size:28.99988937px;font-variant:normal;font-weight:normal;font-stretch:normal;writing-mode:lr-tb;fill:#ffffff;fill-opacity:1;fill-rule:nonzero;stroke:none;font-family:Bebas;-inkscape-font-specification:Bebas">P</tspan></text>
<text
       transform="matrix(0.66798491,-0.74417481,-0.74417481,-0.66798491,404.5038,269.2905)"
       id="text3070"><tspan
         x="0"
         y="0"
         id="tspan3072"
         style="font-size:28.99990654px;font-variant:normal;font-weight:normal;font-stretch:normal;writing-mode:lr-tb;fill:#ffffff;fill-opacity:1;fill-rule:nonzero;stroke:none;font-family:Bebas;-inkscape-font-specification:Bebas">E</tspan></text>
<g
       id="g3074"
       style="filter:url(#filter3090)"><g
         clip-path="url(#clipPath3078)"
         id="g3076"><g
           transform="translate(343.1602,85.9023)"
           id="g3082"><path
             d="m 0,0 c -82.361,-1.496 -150.342,64.059 -151.838,146.422 -1.496,82.361 64.06,150.341 146.421,151.837 C 76.944,299.755 144.926,234.2 146.421,151.838 147.917,69.475 82.36,1.496 0,0 z"
             id="path3084"
             style="fill:none;stroke:#1baaa1;stroke-width:1;stroke-linecap:butt;stroke-linejoin:miter;stroke-miterlimit:4;stroke-opacity:1;stroke-dasharray:none"
             inkscape:connector-curvature="0" /></g></g></g></g></svg>